<?xml version="1.0" encoding="UTF-8"?><svg id="Layer_1" xmlns="http://www.w3.org/2000/svg" viewBox="0 0 147.1 152.38"><defs><style>.cls-1{fill:none;stroke-width:.37px;}.cls-1,.cls-2{stroke:#fff;stroke-miterlimit:10;}.cls-3,.cls-2{fill:#fff;}.cls-4{letter-spacing:.12em;}.cls-5{letter-spacing:.12em;}.cls-6{letter-spacing:.12em;}.cls-7{letter-spacing:.12em;}.cls-2{font-family:VladimirScript, 'Vladimir Script';font-size:35.24px;stroke-width:.73px;}.cls-8{letter-spacing:.12em;}</style></defs><text class="cls-2" transform="translate(39.19 109.81) rotate(-12)"><tspan class="cls-7" x="0" y="0">i</tspan><tspan class="cls-8" x="13.01" y="2.81">t</tspan><tspan class="cls-6" x="26.46" y="5.6"> </tspan><tspan class="cls-4" x="39.15" y="8.67">o</tspan><tspan class="cls-5" x="55.3" y="12.36">n</tspan></text><g><circle class="cls-3" cx="73.06" cy="146.62" r="5.77"/><circle class="cls-3" cx="91.73" cy="143.92" r="4.61"/><circle class="cls-3" cx="54.39" cy="143.92" r="4.61"/><circle class="cls-3" cx="107.89" cy="137.51" r="3.34"/><circle class="cls-3" cx="38.24" cy="137.51" r="3.34"/></g><g><circle class="cls-3" cx="72.97" cy="5.77" r="5.77"/><circle class="cls-3" cx="91.64" cy="8.46" r="4.61"/><circle class="cls-3" cx="54.3" cy="8.46" r="4.61"/><circle class="cls-3" cx="107.79" cy="14.88" r="3.34"/><circle class="cls-3" cx="38.14" cy="14.88" r="3.34"/></g><path class="cls-1" d="m32.57,133.92S5.05,114.53,2.97,83.03"/><path class="cls-1" d="m33.56,17.95s-13.54,8.48-22.36,24.66"/><path class="cls-1" d="m113.69,133.37s27.53-19.39,29.6-50.88"/><path class="cls-1" d="m112.56,17.95s13.54,8.48,22.36,24.66"/><g><circle class="cls-3" cx="2.94" cy="49.75" r="2.94"/><circle class="cls-3" cx="8.81" cy="49.75" r="2.94"/><circle class="cls-3" cx="2.94" cy="55.62" r="2.94"/><circle class="cls-3" cx="2.94" cy="61.49" r="2.94"/><circle class="cls-3" cx="2.94" cy="67.37" r="2.94"/><circle class="cls-3" cx="2.94" cy="73.24" r="2.94"/><circle class="cls-3" cx="8.81" cy="73.24" r="2.94"/><circle class="cls-3" cx="14.68" cy="73.24" r="2.94"/><circle class="cls-3" cx="14.68" cy="49.75" r="2.94"/><circle class="cls-3" cx="20.12" cy="51.95" r="2.94"/><circle class="cls-3" cx="20.12" cy="71.61" r="2.94"/><circle class="cls-3" cx="20.71" cy="65.88" r="2.94"/><circle class="cls-3" cx="17.62" cy="61.49" r="2.94"/><circle class="cls-3" cx="20.69" cy="57.27" r="2.94"/><circle class="cls-3" cx="37.78" cy="49.66" r="2.94"/><circle class="cls-3" cx="37.78" cy="55.62" r="2.94"/><circle class="cls-3" cx="37.78" cy="61.58" r="2.94"/><circle class="cls-3" cx="37.78" cy="67.53" r="2.94"/><circle class="cls-3" cx="37.78" cy="73.41" r="2.94"/><circle class="cls-3" cx="43.65" cy="73.41" r="2.94"/><circle class="cls-3" cx="49.53" cy="73.41" r="2.94"/><circle class="cls-3" cx="55.4" cy="73.41" r="2.94"/><circle class="cls-3" cx="12.55" cy="61.49" r="2.94"/><circle class="cls-3" cx="7.98" cy="61.49" r="2.94"/><circle class="cls-3" cx="66.8" cy="49.62" r="2.94"/><circle class="cls-3" cx="66.8" cy="55.58" r="2.94"/><circle class="cls-3" cx="66.8" cy="61.53" r="2.94"/><circle class="cls-3" cx="66.8" cy="67.49" r="2.94"/><circle class="cls-3" cx="66.8" cy="73.36" r="2.94"/><circle class="cls-3" cx="86.72" cy="49.62" r="2.94"/><circle class="cls-3" cx="86.72" cy="55.58" r="2.94"/><circle class="cls-3" cx="86.72" cy="61.53" r="2.94"/><circle class="cls-3" cx="86.72" cy="67.49" r="2.94"/><circle class="cls-3" cx="86.72" cy="73.36" r="2.94"/><circle class="cls-3" cx="108.13" cy="50.13" r="2.94"/><circle class="cls-3" cx="108.13" cy="56.08" r="2.94"/><circle class="cls-3" cx="108.13" cy="62.04" r="2.94"/><circle class="cls-3" cx="108.13" cy="68" r="2.94"/><circle class="cls-3" cx="108.13" cy="73.87" r="2.94"/><circle class="cls-3" cx="92.33" cy="54.14" r="2.94"/><circle class="cls-3" cx="95.69" cy="59.07" r="2.94"/><circle class="cls-3" cx="99.04" cy="63.99" r="2.94"/><circle class="cls-3" cx="102.34" cy="68.84" r="2.94"/><circle class="cls-3" cx="144.16" cy="62.97" r="2.94"/><circle class="cls-3" cx="144.16" cy="68.84" r="2.94"/><circle class="cls-3" cx="144.16" cy="74.54" r="2.94"/><circle class="cls-3" cx="138.29" cy="74.54" r="2.94"/><circle class="cls-3" cx="132.42" cy="74.54" r="2.94"/><circle class="cls-3" cx="127.19" cy="72.18" r="2.94"/><circle class="cls-3" cx="123.74" cy="67.49" r="2.94"/><circle class="cls-3" cx="123.12" cy="62" r="2.94"/><circle class="cls-3" cx="123.74" cy="56.35" r="2.94"/><circle class="cls-3" cx="127.19" cy="51.95" r="2.94"/><circle class="cls-3" cx="132.42" cy="49.66" r="2.94"/><circle class="cls-3" cx="138.29" cy="49.45" r="2.94"/><circle class="cls-3" cx="143.44" cy="51.21" r="2.94"/></g></svg>