<?xml version="1.0" encoding="UTF-8"?><svg id="Layer_1" xmlns="http://www.w3.org/2000/svg" viewBox="0 0 149.85 122.88"><defs><style>.cls-1{fill:#ff6e89;}</style></defs><path class="cls-1" d="m139.03,42.16c8.01,25.64-14.42,38.46-14.42,38.46-22.29-8.72-32.28-19.2-36.65-26.12-3.83,2.13-14.97,7.07-26.09.06-4.41,6.92-14.41,17.37-36.62,26.06,0,0-22.44-12.82-14.42-38.46,0,0-19.23-19.23-6.41-41.67,0,0,37.76-5.59,57.1,21.11,3.51-1.75,15.59-6.83,26.88-.06C107.75-5.09,145.44.49,145.44.49c12.82,22.44-6.41,41.67-6.41,41.67Z"/><path class="cls-1" d="m43.28,77.32c1.71-.98,5.65-3.72,10.24-7.68.5-.43,1.34-.15,1.01.34-7.91,11.47-3.41,40.95,11.66,46.18.36.12-.74.19-1.17.3-3.52.89-16.6-3.02-21.29-6.77,0,0-3.67,5.96-3.4,12.77,0,.24-.29.47-.61.41-4.12-.73-19.98-12.84-2.34-39.81.35-.53,5.24-5.35,5.92-5.73Z"/><path class="cls-1" d="m106.57,77.32c-1.71-.98-5.65-3.72-10.24-7.68-.5-.43-1.34-.15-1.01.34,7.91,11.47,3.41,40.95-11.66,46.18-.36.12.74.19,1.17.3,3.52.89,16.6-3.02,21.29-6.77,0,0,3.67,5.96,3.4,12.77,0,.24.29.47.61.41,4.12-.73,19.98-12.84,2.34-39.81-.35-.53-5.24-5.35-5.92-5.73Z"/></svg>