<?xml version="1.0" encoding="UTF-8"?><svg xmlns="http://www.w3.org/2000/svg" viewBox="0 0 167.51 168.34"><defs><style>.cls-1{fill:#fff;}.cls-2{letter-spacing:.12em;}.cls-3{letter-spacing:.12em;}.cls-4,.cls-5{fill:#ff6e89;}.cls-5{font-family:VladimirScript, 'Vladimir Script';font-size:24px;stroke:#ff6e89;stroke-miterlimit:10;stroke-width:.5px;}.cls-6{letter-spacing:.12em;}.cls-7{letter-spacing:.12em;}.cls-8{letter-spacing:.12em;}</style></defs><g id="Layer_1"><text class="cls-5" transform="translate(69.23 106.89) rotate(-12)"><tspan class="cls-6" x="0" y="0">i</tspan><tspan class="cls-7" x="8.86" y="1.92">t</tspan><tspan class="cls-8" x="18.02" y="3.81"> </tspan><tspan class="cls-3" x="26.67" y="5.91">o</tspan><tspan class="cls-2" x="37.66" y="8.42">n</tspan></text><path class="cls-4" d="m156.69,56.18c8.01,25.64-14.42,38.46-14.42,38.46-22.29-8.72-32.28-19.2-36.65-26.12-3.83,2.13-14.97,7.07-26.09.06-4.41,6.92-14.41,17.37-36.62,26.06,0,0-22.44-12.82-14.42-38.46,0,0-19.23-19.23-6.41-41.67,0,0,37.76-5.59,57.1,21.11,3.51-1.75,15.59-6.83,26.88-.06,19.36-26.62,57.06-21.04,57.06-21.04,12.82,22.44-6.41,41.67-6.41,41.67Z"/><path class="cls-4" d="m53.96,92.47c2.51-1.06,8.1-3.76,15.29-9.2.78-.59,1.77.38,1.18,1.16-13.89,18.42-27.53,64.7-9.9,82.33.42.42-1.01,0-1.6,0-4.81,0-12.82-3.21-17.63-12.82,0,0-1.6,6.41.02,13.37.11.46-.53.76-.92.5-5.05-3.46-29.55-12.27,10.96-73.46.6-.9,1.61-1.45,2.6-1.87Z"/><path class="cls-4" d="m131.32,92.9c-2.51-1.06-8.1-3.76-15.29-9.2-.78-.59-1.77.38-1.18,1.16,13.89,18.42,27.53,64.7,9.9,82.33-.42.42,1.01,0,1.6,0,4.81,0,12.82-3.21,17.63-12.82,0,0,1.6,6.41-.02,13.37-.11.46.53.76.92.5,5.05-3.46,29.55-12.27-10.96-73.46-.6-.9-1.61-1.45-2.6-1.87Z"/><g><circle class="cls-4" cx="92.64" cy="127.33" r="3.93"/><circle class="cls-4" cx="105.36" cy="125.5" r="3.14"/><circle class="cls-4" cx="79.92" cy="125.5" r="3.14"/><circle class="cls-4" cx="116.36" cy="121.13" r="2.28"/><circle class="cls-4" cx="68.92" cy="121.13" r="2.28"/></g></g><g id="pearl_text"><g><circle class="cls-1" cx="44.54" cy="43.34" r="2"/><circle class="cls-1" cx="48.54" cy="43.34" r="2"/><circle class="cls-1" cx="44.54" cy="47.34" r="2"/><circle class="cls-1" cx="44.54" cy="51.34" r="2"/><circle class="cls-1" cx="44.54" cy="55.34" r="2"/><circle class="cls-1" cx="44.54" cy="59.34" r="2"/><circle class="cls-1" cx="48.54" cy="59.34" r="2"/><circle class="cls-1" cx="52.54" cy="59.34" r="2"/><circle class="cls-1" cx="52.54" cy="43.34" r="2"/><circle class="cls-1" cx="56.25" cy="44.84" r="2"/><circle class="cls-1" cx="56.25" cy="58.23" r="2"/><circle class="cls-1" cx="56.65" cy="54.33" r="2"/><circle class="cls-1" cx="54.54" cy="51.34" r="2"/><circle class="cls-1" cx="56.63" cy="48.46" r="2"/><circle class="cls-1" cx="68.28" cy="43.28" r="2"/><circle class="cls-1" cx="68.28" cy="47.34" r="2"/><circle class="cls-1" cx="68.28" cy="51.4" r="2"/><circle class="cls-1" cx="68.28" cy="55.45" r="2"/><circle class="cls-1" cx="68.28" cy="59.45" r="2"/><circle class="cls-1" cx="72.28" cy="59.45" r="2"/><circle class="cls-1" cx="76.28" cy="59.45" r="2"/><circle class="cls-1" cx="80.28" cy="59.45" r="2"/><circle class="cls-1" cx="51.09" cy="51.34" r="2"/><circle class="cls-1" cx="47.98" cy="51.34" r="2"/><circle class="cls-1" cx="88.04" cy="43.25" r="2"/><circle class="cls-1" cx="88.04" cy="47.31" r="2"/><circle class="cls-1" cx="88.04" cy="51.37" r="2"/><circle class="cls-1" cx="88.04" cy="55.42" r="2"/><circle class="cls-1" cx="88.04" cy="59.42" r="2"/><circle class="cls-1" cx="101.61" cy="43.25" r="2"/><circle class="cls-1" cx="101.61" cy="47.31" r="2"/><circle class="cls-1" cx="101.61" cy="51.37" r="2"/><circle class="cls-1" cx="101.61" cy="55.42" r="2"/><circle class="cls-1" cx="101.61" cy="59.42" r="2"/><circle class="cls-1" cx="116.19" cy="43.6" r="2"/><circle class="cls-1" cx="116.19" cy="47.65" r="2"/><circle class="cls-1" cx="116.19" cy="51.71" r="2"/><circle class="cls-1" cx="116.19" cy="55.77" r="2"/><circle class="cls-1" cx="116.19" cy="59.77" r="2"/><circle class="cls-1" cx="105.43" cy="46.33" r="2"/><circle class="cls-1" cx="107.72" cy="49.68" r="2"/><circle class="cls-1" cx="110" cy="53.04" r="2"/><circle class="cls-1" cx="112.25" cy="56.34" r="2"/><circle class="cls-1" cx="140.73" cy="52.34" r="2"/><circle class="cls-1" cx="140.73" cy="56.34" r="2"/><circle class="cls-1" cx="140.73" cy="60.23" r="2"/><circle class="cls-1" cx="136.73" cy="60.23" r="2"/><circle class="cls-1" cx="132.73" cy="60.23" r="2"/><circle class="cls-1" cx="129.17" cy="58.62" r="2"/><circle class="cls-1" cx="126.83" cy="55.42" r="2"/><circle class="cls-1" cx="126.4" cy="51.68" r="2"/><circle class="cls-1" cx="126.83" cy="47.84" r="2"/><circle class="cls-1" cx="129.17" cy="44.84" r="2"/><circle class="cls-1" cx="132.73" cy="43.28" r="2"/><circle class="cls-1" cx="136.73" cy="43.14" r="2"/><circle class="cls-1" cx="140.24" cy="44.33" r="2"/></g></g></svg>